<?xml version="1.0" encoding="utf-8"?>
<!-- Generator: Adobe Illustrator 15.0.0, SVG Export Plug-In  -->
<!DOCTYPE svg PUBLIC "-//W3C//DTD SVG 1.0//EN" "http://www.w3.org/TR/2001/REC-SVG-20010904/DTD/svg10.dtd" [
	<!ENTITY ns_flows "http://ns.adobe.com/Flows/1.0/">
]>
<svg version="1.0"
	 xmlns="http://www.w3.org/2000/svg" xmlns:xlink="http://www.w3.org/1999/xlink" xmlns:a="http://ns.adobe.com/AdobeSVGViewerExtensions/3.0/"
	 x="0px" y="0px" width="320px" height="320px" viewBox="39.654 166 320 320"
	 overflow="visible" enable-background="new 39.654 166 320 320" xml:space="preserve">
<defs>
</defs>
<rect x="25.432" display="none" fill="#659999" width="464" height="468"/>
<path fill="#FFFFFF" d="M224.421,374.104c-2.961-2.123-8.174-4.851-9.329-7.834c-8.607,2.294-11.308,2.104-20.753,2.853
	c0.524,8.766,2.033,11.944,5.318,17.668c4.811,8.379,12.559,16.343,13.294,28.353c0.174,2.832,0.082,5.996-0.326,9.293l4.114,0.409
	c0.787,0.18,4.8,1.186,9.467,1.039C242.501,425.37,261.327,400.58,224.421,374.104z"/>
<path fill="#FFFFFF" d="M0,102.719v420.508h422V102.719H0z M347.513,376.531c-5.59,9.084-15.389,21.162-35.852,21.164h-0.005
	c-0.217,0-0.431-0.002-0.649-0.005c-10.416-0.131-19.098-3.623-24.449-9.831c-4.653-5.399-6.546-12.407-5.475-20.268
	c1.691-12.396,8.971-19.222,20.499-19.222c2.029,0,4.188,0.211,6.415,0.629c6.573,1.232,9.85,4.756,11.44,7.495
	c2.636,4.539,2.376,9.618,1.254,12.858c-1.974,5.699-7.67,10-13.252,10c-0.912,0-3.502-0.525-5.829-2.749
	c-5.454-5.212-3.43-9.845,0.09-10.638c2.78-0.628,6.297,2.865,6.524,3.217c1.261-0.832,2.733-2.115,2.449-3.441
	c-0.15-0.696-0.217-1.447-0.281-2.176c-0.279-3.158-0.522-5.888-6.827-5.888c-4.29,0-7.867,1.545-10.076,4.35
	c-2.362,3-2.979,7.207-1.784,12.164c2.414,10.012,12.729,11.506,18.661,11.506c1.854,0,3.765-0.142,5.678-0.421
	c10.214-1.49,23.852-12.743,22.194-33.099c-1.679-20.63-19.509-36.504-42.394-37.745c-2.302-0.124-4.542-0.194-6.691-0.218
	c-0.015,0.001-0.028,0.001-0.043,0.002c-8.354,18.302-27.918,34.809-50.523,44.797c6.93,6.535,37.712,27.703,36.036,54.782
	c-2.294,37.08-37.557,41.823-50.254,41.823c-7.639,0.001-13.803-1.343-15.74-2.298c-1.799-0.887-4.644-1.855-5.973-2.775
	c-1.319,1.259-1.941,1.979-3.373,2.933c0.525,0.542,1.096,1.179,1.39,1.601c0.108,0.157,0.203,0.314,0.298,0.472
	c0.059,0.075,0.113,0.148,0.159,0.214c1.168,1.682,1.51,3.36,0.988,4.856c-1.699,4.875-6.197,7.489-22.414,7.489
	c-1.162,0-9.128-0.451-16.007-1.673c-5.31-0.59-10.054-1.724-10.35-4.227c-0.061-0.118-0.108-0.24-0.146-0.365
	c-1.074,0.075-2.141,0.132-3.181,0.157c-1.06,0.026-2.042,0.039-2.947,0.039c-6.996,0-10.928-0.656-11.667-4.122
	c-0.023-0.108-0.022-0.223-0.03-0.334c-0.036-0.119-0.077-0.234-0.104-0.361c-0.339-1.59,0.923-3.516,1.706-4.521
	c2.776-3.569,8.716-7.496,17.064-7.817c0.584-0.021,1.152-0.033,1.701-0.033c0.594,0,1.167,0.02,1.733,0.045
	c-1.354-2.242-2.406-4.543-3.217-6.741c-2.007-5.205-2.669-9.896-2.864-11.817c-0.753-7.418-0.574-16.065,0.741-22.416
	c-3.82,1.539-11.828,1.916-14.995,1.162c-4.033-0.962-8.503-4.057-11.181-6.157c-1.237-0.971-2.287-1.776-3.207-2.463
	c1.348,2.177,2.608,4.198,2.949,4.67c0.194,0.249,0.742,0.643,1.271,1.026c0.889,0.638,1.992,1.432,2.722,2.378
	c0.716,0.923,0.974,1.867,0.768,2.803l-0.022,0.107c-0.538,2.535-1.59,3.959-3.132,4.238c-0.167,0.031-0.328,0.062-0.486,0.097
	c-1.949,0.396-3.509,0.796-5.933-2.341c-0.714-0.926-1.656-2.308-2.54-3.792c-2.962-4.962-3.594-8.265-4.782-9.826
	c-1.204-1.586-6.053-6.584-7.196-8.615s-5.129-9.857-5.129-9.857c-0.609-0.788-1.903-2.331-3.494-3.963
	c-1.888-1.936-3.738-3.869-4.812-5.194c-1.073-1.328-1.894-3.098-2.68-4.647c-0.722-1.428-1.495-3.021-2.374-3.864
	c-2.27-2.184-9.421-13.847-10.231-15.205c-0.26-0.44-1.029-1.302-1.843-2.235c-0.754-0.859-1.535-1.75-2.142-2.537
	c-0.004-0.006-0.005-0.009-0.01-0.013c-0.625-0.81-1.657-2.153-0.75-2.893c1.994-1.623,3.701,0.178,5.066,1.622
	c0.517,0.543,1.048,1.109,1.584,1.508c0.842,0.633,1.798,1.646,2.916,3.093c0.767,0.991,1.497,2.034,2.138,2.956
	c0.444,0.633,0.843,1.206,1.183,1.656l0.047,0.061c0.581,0.753,1.515,1.626,2.599,2.638c1.514,1.416,3.239,3.033,4.631,4.909
	c1.265,1.715,2.367,3.732,3.34,5.508c0.786,1.442,1.529,2.798,2.166,3.62l0.103,0.132c0.605,0.738,2.051,2.187,3.58,3.713
	c2.204,2.208,4.49,4.499,5.319,5.689c0.556,0.801,1.243,2.163,1.957,3.667c0.329,0.527,0.643,1.086,0.917,1.677
	c0.012,0.024,0.021,0.172,0.03,0.351c0.026,0.057,0.052,0.111,0.078,0.169l0.889-0.09c0.485-0.025,1.047-0.045,1.711-0.07
	l1.557-0.058c2.157-0.091,3.808,0.537,4.978,1.846c1.484,1.657,1.685,3.961,1.68,5.125c2.557,1.557,13.382,8.036,18.784,7.948
	c6.343-0.104,16.596-5.629,20.948-8.262c2.76-6.311,8.211-12.71,6.912-17.086c-23.57-2.429-51.537-9.311-68.607-19.983
	c-22.445-14.032-34.805-33.461-34.805-54.711c0-4.938,0.803-9.855,2.354-14.705c-1.743-1.438-3.719-3.1-5.711-4.873
	c-7.287-6.46-14.866-14.422-11.968-18.112c3.365-4.283,16.57,2.166,25.42,7.415c0.169-0.248,0.344-0.496,0.518-0.744
	c-2.106-2.956-4.974-7.118-7.739-11.583c-0.474-0.762-0.946-1.53-1.411-2.306c-7.857-13.12-10.539-20.244-6.904-23.252
	c1-0.829,2.271-1.175,3.776-1.03c6.763,0.651,18.698,11.195,25.637,18.778c-2.022-4.186-4.491-9.49-6.748-14.889
	c-2.107-5.042-3.614-9.155-4.663-12.531c-3.775-11.893-2.003-14.859-0.069-15.964c2.432-1.391,7.558-1.173,23.888,16.695
	c4.616,5.052,8.745,10.483,11.625,14.499c21.898-12.018,47.76-19.04,70.914-19.04c21.995,0,41.537,3.003,57.853,8.789
	c3.812-4.549,8.705-10.234,13.853-15.804c8.265-8.942,14.257-14.43,18.639-17.777c8.557-6.75,11.36-5.763,12.549-5.338
	c1.096,0.39,1.878,1.222,2.264,2.404c2.54,7.789-13.27,34.182-22.783,49.025c0.083,0.059,0.168,0.116,0.249,0.175
	c1.609,1.163,3.146,2.372,4.623,3.618c4.353-3,9.63-6.519,15.054-9.856c5.348-3.289,9.795-5.758,13.518-7.607
	c16.189-8.229,19.195-5.099,20.314-3.926c0.853,0.892,1.218,2.074,1.058,3.418c-0.969,8.147-22.481,24.235-36.116,33.676
	c0.891,1.409,1.723,2.849,2.497,4.316c1.816-0.782,3.717-1.573,5.642-2.329c2.52-0.988,4.752-1.789,6.745-2.44
	c12.868-4.349,16.071-2.568,17.315-0.702c0.359,0.541,0.722,1.457,0.398,2.754c-1.284,5.167-13.669,13.687-23.965,19.994
	c0.92,4.56,1.387,9.306,1.387,14.22c0,2.86-0.214,5.686-0.626,8.471c0.293,0.016,0.578,0.024,0.873,0.042
	c6.824,0.404,12.844,1.442,18.168,2.974c15.835,4.23,26.319,12.488,32.277,23.932C356.11,345.558,351.201,370.538,347.513,376.531z"
	/>
<path opacity="0.3" fill="#FFFFFF" d="M344.145,324.771c-5.928-11.387-16.36-19.604-32.118-23.812
	c-5.298-1.525-11.288-2.559-18.078-2.959c-0.293-0.018-0.577-0.028-0.868-0.043c0.409-2.771,0.622-5.583,0.622-8.429
	c0-4.89-0.465-9.612-1.38-14.15c10.245-6.276,22.569-14.753,23.848-19.896c0.321-1.29-0.039-2.202-0.397-2.74
	c-1.406-2.111-5.327-4.117-23.034,2.827c-2.223,0.873-4.419,1.793-6.481,2.691c-0.781-1.486-1.623-2.943-2.525-4.369
	c13.568-9.395,34.975-25.403,35.939-33.511c0.159-1.337-0.204-2.514-1.052-3.401c-1.358-1.422-5.489-5.753-32.793,11.042
	c-5.71,3.513-11.269,7.234-15.744,10.332c-1.503-1.272-3.069-2.504-4.709-3.689c-0.081-0.058-0.166-0.115-0.248-0.174
	c9.467-14.769,25.199-41.033,22.671-48.784c-0.384-1.177-1.162-2.004-2.252-2.392c-1.781-0.636-7.188-2.562-30.312,22.458
	c-5.348,5.786-10.433,11.709-14.304,16.341c-16.276-5.805-35.796-8.816-57.772-8.816c-23.041,0-48.775,6.987-70.565,18.946
	c-2.866-3.997-6.975-9.4-11.568-14.428c-16.25-17.78-21.35-17.997-23.77-16.613c-2.458,1.404-4.656,5.827,4.579,27.925
	c2.35,5.624,4.937,11.157,7.003,15.418c-6.881-7.557-18.89-18.206-25.67-18.858c-1.499-0.144-2.762,0.2-3.757,1.024
	c-3.617,2.994-0.949,10.083,6.87,23.138c3.183,5.315,6.694,10.415,9.116,13.806c-0.177,0.252-0.355,0.504-0.527,0.756
	c-8.807-5.224-21.946-11.64-25.295-7.378c-3.676,4.681,9.585,16.267,17.595,22.862c-1.545,4.828-2.345,9.726-2.345,14.643
	c0,21.146,12.299,40.479,34.634,54.442c16.986,10.619,46.463,16.751,69.917,19.168c1.292,4.354-4.709,12.364-7.456,18.645
	c-2.358,1.427-8.535,4.784-12.799,6.581l-11.557,1.615c-5.689-1.024-14.683-6.807-16.963-8.196c0.004-1.158,0.234-3.575-1.242-5.224
	c-1.164-1.304-2.575-1.332-4.721-1.243l-1.554-0.187c-0.661,0.025-1.133-0.024-1.616,0l-0.931,0.249
	c-0.033-0.071-0.048-1.067-0.081-1.138c-1.02-2.207-2.608-4.005-3.4-5.145c-0.825-1.185-3.319-3.326-5.512-5.523
	c-1.522-1.52-2.832-3.116-3.435-3.852l-0.435-0.559c-0.634-0.818-1.207-2.046-1.988-3.479c-0.969-1.769-1.849-3.574-3.107-5.281
	c-1.385-1.866-3.154-3.5-4.66-4.909c-1.079-1.007-1.97-1.735-2.547-2.485l0,0c-0.337-0.447-0.863-1.382-1.305-2.011
	c-0.638-0.917-1.287-2.099-2.05-3.083c-1.112-1.44-1.958-2.168-2.796-2.796c-0.533-0.398-0.977-0.767-1.491-1.306
	c-1.358-1.437-2.49-3.295-4.473-1.68c-0.903,0.735-0.048,1.634,0.574,2.438c0.005,0.005,0.006,0.008,0.01,0.014
	c0.604,0.782,1.381,1.669,2.132,2.524c0.811,0.929,1.575,1.786,1.834,2.224c0.806,1.353,7.922,12.958,10.181,15.131
	c0.874,0.84,1.643,2.425,2.362,3.845c0.782,1.542,1.598,3.305,2.667,4.624s2.909,3.245,4.788,5.171
	c1.583,1.623,2.871,3.158,3.477,3.942c0,0,3.966,7.787,5.104,9.809c1.138,2.021,5.962,6.995,7.161,8.572
	c1.182,1.556,1.811,4.842,4.758,9.778c0.88,1.478,1.817,2.852,2.528,3.773c2.412,3.121,3.964,2.725,5.903,2.328
	c0.158-0.034,0.317-0.062,0.484-0.095c1.534-0.278,2.582-1.695,3.116-4.217l0.022-0.107c0.205-0.932-0.77-1.063-1.483-1.982
	c-0.726-0.941-2.819-2.627-3.704-3.262c-0.526-0.381-2.414-4.846-3.914-7.27c1.196,1.253,3.414,3.339,4.622,4.141
	c2.82,1.874,7.112,5.171,11.126,6.127c3.242,0.772,11.598,0.356,15.252-1.288c-1.423,6.395-1.631,15.341-0.856,22.978
	c0.278,2.737,1.493,11.1,6.221,18.562c-0.61-0.028-1.23-0.049-1.872-0.049c-0.549,0-1.117,0.012-1.701,0.033
	c-8.348,0.321-14.288,4.248-17.064,7.817c-0.782,1.006-2.044,2.932-1.706,4.521c0.736,3.448,4.648,4.102,11.61,4.102
	c0.901,0,1.878-0.013,2.933-0.039c1.075-0.026,2.178-0.084,3.288-0.164c-0.154,2.756,4.78,3.961,10.321,4.576
	c6.845,1.216,14.771,1.665,15.928,1.665c16.137,0,20.613-2.601,22.305-7.452c0.519-1.488,0.178-3.159-0.984-4.833
	c-0.41-0.588-1.359-1.6-1.974-2.182c1.527-0.996,2.137-1.717,3.492-3.011c1.323,0.915,4.154,1.879,5.944,2.762
	c1.927,0.95,8.061,2.287,15.662,2.286c12.635,0,47.724-4.72,50.007-41.616c1.668-26.947-28.964-48.011-35.859-54.514
	c22.495-9.939,41.964-26.366,50.275-44.578c2.152,0.021,6.713-0.384,9.019-0.259c22.771,1.234,39.958,18.116,41.628,38.646
	c1.649,20.255-13.322,31.821-23.485,33.303c-1.904,0.279-4.865,0.875-6.71,0.875c-5.904,0-15.467-2.921-17.87-12.884
	c-1.188-4.932-0.575-9.118,1.775-12.104c2.199-2.791,6.233-5.12,10.502-5.12c6.273,0,8.03,3.85,8.309,6.992
	c0.064,0.725,0.131,1.473,0.28,2.165c0.282,1.32-2.301,3.809-3.556,4.636c-0.227-0.349-3.665-4.353-6.431-3.728
	c-3.502,0.789-4.682,4.413,0.745,9.6c2.315,2.212,3.566,2.144,4.474,2.144c5.555,0,10.782-3.729,12.746-9.399
	c1.116-3.225,1.374-8.278-1.248-12.795c-1.582-2.727-4.677-5.191-11.218-6.418c-2.217-0.416-3.822-0.373-5.841-0.373
	c-11.472,0-17.329,6.182-19.012,18.516c-1.067,7.822-0.156,13.395,4.473,18.769c5.326,6.177,12.748,9.681,23.113,9.812
	c0.218,0.003,0.525,0.693,0.742,0.693l0.252-0.817c20.362-0.001,29.865-11.203,35.428-20.242
	C350.007,370.272,354.892,345.415,344.145,324.771z M227.03,426.923c-4.645,0.146-10.276-0.939-11.06-1.118l-4.474-0.248
	c0.405-3.281,1.112-8.08,0.938-10.898c-0.731-11.95-9.401-19.778-13.945-27.661c-2.331-4.043-5.16-9.33-5.682-18.054
	c9.398-0.745,13.192-0.635,21.758-2.917c2.025,0.629,8.523,5.474,11.47,7.588C262.762,399.958,243.245,426.412,227.03,426.923z"/>
<path fill="#010202" d="M129.694,404.539c-0.729-0.946-1.833-1.74-2.722-2.378c-0.529-0.384-1.076-0.777-1.271-1.026
	c-0.435-0.603-2.363-3.723-4.066-6.475c-1.394-2.255-2.71-4.384-3.229-5.165c-0.655-1.001-2.071-2.274-3.426-3.485
	c-0.568-0.511-1.12-1.006-1.581-1.448c-0.162,0.217-0.407,0.372-0.694,0.372h-0.373c-0.189,0-0.348-0.061-0.481-0.154
	c1.497,1.593,4.972,4.653,5.47,5.41c0.502,0.767,1.813,2.884,3.204,5.13c1.799,2.908,3.49,6.051,3.995,6.745
	c0.319,0.408,0.872,0.811,1.574,1.314c0.849,0.611,1.852,1.277,2.41,2.077c0.78,1.113,0.465,1.681,0.465,1.681
	c-1.19,3.622-4.607,3.528-6.622,0.887c-1.947-2.553-5.084-11.675-6.753-13.511c-1.669-1.834-6.246-6.639-7.528-8.465
	c-1.287-1.825-1.838-2.905-2.775-4.944c-0.904-1.964-1.759-3.82-2.406-4.692l-0.081-0.109c-0.663-0.855-2.191-2.427-3.812-4.089
	c-1.771-1.818-3.78-3.877-4.7-5.067l-0.084-0.113c-0.829-1.104-1.687-2.801-2.445-4.295c-0.81-1.6-1.504-2.97-2.135-3.665
	c-0.069-0.08-0.171-0.204-0.299-0.37c-2.059-2.662-9.711-13.861-10.388-14.992c-0.302-0.504-1.113-1.436-2.004-2.455
	c-0.739-0.846-1.504-1.716-2.083-2.469c-0.395-0.508-0.613-0.779-0.392-1.193c0.666-0.313,1.649,0.158,3.055,1.64
	c0.556,0.593,3.065,3.109,4.101,4.451c0.744,0.96,2.014,3.131,3.311,4.596c2.022,2.287,5.891,5.871,7.183,7.642
	c1.205,1.637,4.019,7.409,5.571,9.402c1.377,1.767,7.504,7.477,8.828,9.312c0.78,1.076,1.855,3.501,2.848,5.68
	c0.129-0.084,0.289-0.137,0.489-0.128c0.319,0.014,0.633,0.063,0.95,0.097c-0.111-0.239-0.223-0.48-0.336-0.725
	c-1.025-2.218-2.089-4.509-2.884-5.653c-0.829-1.19-3.115-3.481-5.319-5.689c-1.529-1.526-2.975-2.975-3.58-3.713l-0.103-0.132
	c-0.637-0.822-1.38-2.178-2.166-3.62c-0.973-1.775-2.076-3.793-3.34-5.508c-1.392-1.876-3.117-3.493-4.631-4.909
	c-1.084-1.012-2.018-1.885-2.599-2.638l-0.047-0.061c-0.339-0.45-0.739-1.023-1.183-1.656c-0.641-0.922-1.372-1.965-2.138-2.956
	c-1.118-1.446-2.074-2.46-2.916-3.093c-0.536-0.398-1.067-0.965-1.584-1.508c-1.365-1.444-3.072-3.245-5.066-1.622
	c-0.907,0.739,0.124,2.083,0.75,2.893c0.005,0.004,0.006,0.007,0.01,0.013c0.607,0.787,1.388,1.678,2.142,2.537
	c0.814,0.934,1.583,1.795,1.843,2.235c0.811,1.358,7.961,13.021,10.231,15.205c0.879,0.844,1.651,2.437,2.374,3.864
	c0.786,1.55,1.606,3.319,2.68,4.647c1.074,1.325,2.924,3.259,4.812,5.194c1.591,1.632,2.885,3.175,3.494,3.963
	c0,0,3.986,7.826,5.129,9.857s5.992,7.029,7.196,8.615c1.188,1.562,1.82,4.864,4.782,9.826c0.884,1.484,1.826,2.866,2.54,3.792
	c2.424,3.137,3.983,2.737,5.933,2.341c0.158-0.035,0.318-0.065,0.486-0.097c1.542-0.279,2.595-1.703,3.132-4.238l0.022-0.107
	C130.668,406.406,130.411,405.462,129.694,404.539z"/>
<path fill="#010202" d="M345.312,324.812c-5.958-11.443-16.442-19.701-32.277-23.932c-5.324-1.531-11.344-2.569-18.168-2.974
	c-0.295-0.018-0.58-0.026-0.873-0.042c0.412-2.785,0.626-5.61,0.626-8.471c0-4.914-0.467-9.66-1.387-14.22
	c10.296-6.307,22.681-14.826,23.965-19.994c0.323-1.297-0.039-2.213-0.398-2.754c-1.414-2.122-5.354-4.137-23.148,2.841
	c-2.233,0.876-4.44,1.801-6.513,2.704c-0.786-1.494-1.632-2.958-2.538-4.39c13.635-9.441,35.147-25.529,36.116-33.676
	c0.16-1.344-0.205-2.526-1.058-3.418c-1.364-1.429-5.516-5.781-32.954,11.097c-5.738,3.529-11.325,7.27-15.822,10.382
	c-1.51-1.278-3.084-2.516-4.732-3.707c-0.081-0.059-0.166-0.116-0.249-0.175c9.514-14.843,25.323-41.236,22.783-49.025
	c-0.386-1.183-1.168-2.014-2.264-2.404c-1.789-0.639-7.223-2.575-30.461,22.568c-5.374,5.815-10.483,11.767-14.374,16.421
	c-16.357-5.833-35.973-8.859-58.058-8.859c-23.154,0-49.016,7.022-70.914,19.04c-2.88-4.016-7.009-9.447-11.625-14.499
	c-16.33-17.869-21.456-18.086-23.888-16.695c-2.47,1.411-4.679,5.854,4.602,28.062c2.362,5.652,4.961,11.213,7.038,15.495
	c-6.916-7.594-18.983-18.296-25.797-18.951c-1.505-0.145-2.775,0.201-3.776,1.03c-3.635,3.008-0.954,10.132,6.904,23.252
	c3.2,5.342,6.728,10.466,9.161,13.874c-0.178,0.253-0.356,0.506-0.53,0.76c-8.85-5.249-22.055-11.697-25.42-7.415
	c-3.694,4.703,9.633,16.348,17.682,22.974c-1.553,4.853-2.357,9.774-2.357,14.716c0,21.25,12.36,40.679,34.805,54.711
	c17.07,10.673,45.037,17.555,68.607,19.983c1.299,4.376-4.152,10.775-6.912,17.086c-4.353,2.633-14.605,8.158-20.948,8.262
	c-5.402,0.088-16.227-6.392-18.784-7.948c0.004-1.164-0.196-3.468-1.68-5.125c-1.169-1.309-2.821-1.937-4.978-1.846l-1.557,0.058
	c-0.664,0.025-1.226,0.045-1.711,0.07l-1.697,0.17c-0.627,0.126-0.992,0.331-1.275,0.708c-0.497,0.655-0.314,1.396-0.14,2.114
	c0.035,0.145,0.074,0.302,0.113,0.477c0.36,1.625,1.77,2.557,3.866,2.562l0.002,0.006c0.441-0.022,0.93,0.008,1.349-0.129
	c0.013-0.005,0.016-0.015,0.028-0.021c-0.011-0.341-0.057-0.693-0.226-0.951c-0.009-0.011-0.016-0.021-0.025-0.03l-0.08-0.006
	l-0.033-0.067c0,0-0.114,0.021-0.301,0.042c-0.281,0.032-0.73,0.06-1.215,0.014c-0.936-0.091-2.007-0.462-2.274-1.663
	c-0.307-1.384-0.61-1.816,0.671-2.004c0.298-0.042,0.687-0.074,1.177-0.099c0.177-0.011,0.36-0.02,0.565-0.028
	c0.733-0.03,1.654-0.06,2.806-0.106c4.779-0.19,5.439,3.727,5.49,5.549c0.007,0.244,0.006,0.455-0.001,0.609l-0.022,0.203
	l0.01,0.006c-0.004,0.058-0.009,0.095-0.009,0.095s1.116,0.703,2.853,1.7c3.925,2.4,12.026,6.906,17.122,6.96
	c6.546,0.068,14.899-3.835,18.895-5.921c-2.564,4.087-5.808,10.88-5.927,11.355c-3.53,1.651-11.641,2.778-14.699,2.462
	c-5.405-0.559-9.568-4.1-12.737-6.709c-1.67-1.376-3.903-2.981-6.045-4.187c0.04,0.045,0.084,0.077,0.117,0.136
	c0.399,0.771,0.846,1.51,1.227,2.285c1.284,0.909,2.843,2.083,4.926,3.717c2.677,2.101,7.148,5.195,11.181,6.157
	c3.258,0.775,11.656,0.357,15.328-1.295c-1.43,6.426-1.64,15.418-0.86,23.092c0.279,2.751,1.5,11.154,6.251,18.654
	c-0.613-0.029-1.236-0.05-1.881-0.05c-0.552,0-1.123,0.012-1.71,0.033c-8.389,0.323-14.358,4.271-17.148,7.856
	c-0.786,1.011-2.055,2.946-1.714,4.544c0.74,3.466,4.671,4.122,11.667,4.122c0.906,0,1.887-0.013,2.947-0.039
	c1.081-0.026,2.188-0.084,3.305-0.165c-0.155,2.769,4.803,3.98,10.372,4.6c6.879,1.222,14.845,1.673,16.007,1.673
	c16.216,0,20.714-2.614,22.414-7.489c0.521-1.496,0.18-3.175-0.988-4.856c-0.412-0.592-1.366-1.607-1.983-2.193
	c1.535-1,2.147-1.726,3.51-3.025c1.329,0.92,4.174,1.889,5.973,2.775c1.938,0.955,8.102,2.299,15.74,2.298
	c12.697,0,47.96-4.743,50.254-41.823c1.676-27.079-29.106-48.247-36.036-54.782c22.606-9.988,42.171-26.496,50.523-44.799
	c2.163,0.021,4.418,0.093,6.734,0.218c22.885,1.241,40.715,17.115,42.394,37.745c1.657,20.355-11.98,31.608-22.194,33.099
	c-1.913,0.279-3.824,0.421-5.678,0.421c-5.933,0-16.247-1.494-18.661-11.506c-1.195-4.957-0.578-9.164,1.784-12.164
	c2.209-2.805,5.786-4.35,10.076-4.35c6.305,0,6.548,2.729,6.827,5.888c0.064,0.729,0.131,1.479,0.281,2.176
	c0.284,1.326-1.188,2.609-2.449,3.441c-0.228-0.352-3.744-3.845-6.524-3.217c-3.52,0.793-5.544,5.426-0.09,10.638
	c2.327,2.224,4.917,2.749,5.829,2.749c5.582,0,11.278-4.301,13.252-10c1.122-3.24,1.382-8.319-1.254-12.858
	c-1.591-2.739-4.867-6.263-11.44-7.495c-2.228-0.418-4.386-0.629-6.415-0.629c-11.528,0-18.808,6.826-20.499,19.222
	c-1.071,7.86,0.821,14.868,5.475,20.268c5.352,6.208,14.033,9.7,24.449,9.831c0.219,0.003,0.433,0.005,0.649,0.005h0.005
	c20.463-0.002,30.262-12.08,35.852-21.164C351.201,370.538,356.11,345.558,345.312,324.812z M83.765,227.831
	c-8.899-21.296-6.502-24.717-5.556-25.257c4.258-2.423,20.462,14.585,32.979,30.04c-2.343,1.319-4.638,2.695-6.876,4.127
	c-4.475,2.862-8.59,5.854-12.349,8.946C89.772,241.254,86.598,234.611,83.765,227.831z M61.218,227.275
	c0.535-0.442,1.236-0.613,2.136-0.526c6.305,0.606,18.635,13.151,25.835,21.289c-4.906,4.317-9.109,8.825-12.589,13.469
	C67.33,248.536,56.934,230.821,61.218,227.275z M51.693,257.094c1.753-2.231,11.717,2.397,21.858,8.796
	c-2.395,3.745-4.321,7.566-5.766,11.438C58.028,268.696,49.862,259.425,51.693,257.094z M153.961,459.545
	c-1.356,0.11-2.7,0.189-3.996,0.222c-1.042,0.025-2.004,0.039-2.892,0.039c-8.283,0-9.237-1.215-9.48-2.354
	c-0.045-0.213,0.096-1.163,1.292-2.703c2.481-3.188,8.574-7.664,16.867-8.074c1.018-0.05,2.023,0.027,3.007,0.205
	c1.235,1.755,2.683,3.433,4.374,4.95C158.741,454.074,155.325,456.88,153.961,459.545z M200.513,456.888
	c0.027,0.045,0.047,0.09,0.072,0.135c0.391,0.752-0.246,1.908-0.578,2.861c-1.151,3.306-8.714,5.337-20.582,5.337
	c-2.04,0-24.409-0.479-24.623-4.296c-0.032-0.566,0.304-1.104,0.584-1.508c1.529-2.22,4.775-4.665,8.81-6.677
	c0.369-0.186,0.743-0.366,1.124-0.542c0.396-0.184,0.798-0.361,1.206-0.534c0.35-0.15,0.705-0.296,1.063-0.438
	c0.645-0.255,1.302-0.496,1.967-0.722c0,0,1.309-0.322,1.229-0.399c3.392-1.038,6.952-1.658,10.303-1.59
	c5.608,0.113,10.727,1.712,14.4,3.85c0.811,0.471,1.546,0.97,2.206,1.482c0.318,0.248,0.622,0.498,0.901,0.753
	c-0.154,0.092-0.074,0.049,0.003,0.003L200.513,456.888z M194.411,450.546c-4.242-1.992-7.193-3.025-13.299-3.148
	c-0.176-0.005-0.351-0.006-0.527-0.006c-3.617,0-7.372,0.672-10.897,1.773c-0.446,0.14-0.888,0.287-1.326,0.439
	c-0.654,0.229-1.302,0.469-1.934,0.724c-0.353,0.143-0.701,0.288-1.044,0.438c-1.002-0.829-1.913-1.72-2.75-2.655
	c-0.3-0.333-0.594-0.671-0.874-1.017c-0.346-0.427-0.676-0.858-0.993-1.297c-5.349-7.399-6.651-16.358-6.933-19.141
	c-0.824-8.121-0.382-15.447,1.346-22.11c0.127-0.493,0.267-0.981,0.41-1.468c0.149-0.511,0.31-1.016,0.475-1.519
	c1.287-3.925,3.041-7.616,5.289-11.091c0.498-0.77,0.934-1.545,1.322-2.321c0.363-0.722,8.866-14.766,7.774-18.789
	c5.513,0.492,8.31,0.729,10.468,0.745c3.525,0.028,7.625-0.367,11.07-0.59c0.196,3.033,1.994,11.817,5.219,18.392
	c4.108,8.373,10.018,15.868,10.687,27.09C209.109,435.38,195.765,449.434,194.411,450.546z M212.951,415.144
	c-0.735-12.01-8.483-19.974-13.294-28.353c-3.285-5.724-4.794-8.902-5.318-17.668c9.445-0.748,12.146-0.559,20.753-2.853
	c1.155,2.983,6.368,5.711,9.329,7.834c36.906,26.476,18.08,51.266,1.785,51.78c-4.667,0.146-8.68-0.859-9.467-1.039l-4.114-0.409
	C213.033,421.14,213.125,417.976,212.951,415.144z M271.144,413.796c-2.098,33.92-32.505,37.408-47.468,38.229
	c-9.185,0.503-18.335-4.403-19.032-4.821c4.838-6.051,6.665-13.419,7.846-20.399l3.575,0.182c0.188,0.047,4.673,1.281,10.142,1.136
	c19.277-0.514,39.408-24,1.196-55.688c-2.656-2.203-7.921-4.766-8.946-7.27c5.494-1.557,11.161-2.596,16.196-4.716
	C239.332,363.673,272.746,387.897,271.144,413.796z M290,297.745c-0.054,0.362-0.119,0.722-0.181,1.083
	c-0.784,4.535-2.14,8.931-4.015,13.16c-0.166,0.375-0.334,0.751-0.509,1.123c-0.177,0.379-0.357,0.755-0.543,1.131
	c-8.098,16.396-24.074,30.105-44.709,39.312c-0.353,0.157-0.708,0.312-1.064,0.468c-0.357,0.156-0.715,0.312-1.075,0.465
	c-5.048,2.144-10.36,4.019-15.891,5.606c-0.367,0.104-0.734,0.209-1.103,0.312c-0.363,0.101-0.729,0.2-1.094,0.297
	c-8.403,2.272-17.287,3.877-26.501,4.731c-0.372,0.035-0.742,0.073-1.115,0.104c-0.371,0.032-0.744,0.06-1.115,0.089
	c-4.356,0.344-8.777,0.525-13.256,0.525c-5.125,0-10.104-0.161-14.946-0.487c-0.42-0.029-0.84-0.057-1.258-0.088
	c-0.422-0.03-0.842-0.065-1.261-0.099c-22.922-1.841-42.688-7.558-59.768-18.234c-21.766-13.608-33.753-32.364-33.753-52.815
	c0-4.466,0.708-8.863,2.021-13.16c0.123-0.404,0.252-0.806,0.386-1.207c0.125-0.375,0.249-0.75,0.384-1.123
	c1.452-4.034,3.441-7.971,5.893-11.781c0.196-0.306,0.396-0.609,0.598-0.913c0.186-0.278,0.372-0.557,0.563-0.835
	c0.008-0.012,0.017-0.025,0.027-0.038c0.213-0.31,0.431-0.62,0.65-0.929c0.225-0.313,0.45-0.627,0.68-0.938
	c3.546-4.818,7.825-9.409,12.68-13.709c0.277-0.246,0.551-0.492,0.832-0.735c0.194-0.168,0.392-0.335,0.587-0.502
	c0.291-0.249,0.585-0.497,0.879-0.743c5.87-4.912,12.489-9.413,19.607-13.404c0.324-0.182,0.649-0.362,0.975-0.542
	c0.109-0.06,0.217-0.121,0.326-0.181c21.151-11.576,46.497-18.665,69.595-18.665c21.488,0,40.584,2.884,56.537,8.451
	c-3.397,4.103-5.551,6.828-5.597,6.887l1.756,1.385c0.042-0.053,0.084-0.105,0.126-0.158c1.829-2.318,3.821-4.781,5.924-7.32
	c0.255-0.309,0.513-0.618,0.771-0.928c0.246-0.295,0.492-0.59,0.741-0.886c15.442-18.441,35.905-39.833,41.884-37.692
	c0.442,0.159,0.716,0.465,0.888,0.993c2.078,6.369-13.489,29.988-24.323,45.845c-0.213,0.311-0.423,0.619-0.631,0.924
	c-0.214,0.311-0.424,0.619-0.633,0.923c-2.128,3.102-4.025,5.848-5.494,8.007l2.721,1.762l1.188,0.769
	c0.733-1.079,2.706-4,5.306-8.017c0.05,0.036,0.102,0.07,0.15,0.105c1.439,1.041,2.808,2.123,4.117,3.234
	c-4.803,3.361-7.962,5.715-8.023,5.762l0.669,0.896h-0.001l0.006,0.006l0.664,0.889c0.019-0.014,0.038-0.028,0.058-0.043
	c2.568-1.917,5.381-3.949,8.331-6.015c0.327-0.229,0.653-0.458,0.985-0.688c0.313-0.219,0.632-0.438,0.948-0.657
	c18.352-12.679,41.115-25.964,45.448-21.425c0.246,0.258,0.562,0.706,0.454,1.61c-0.803,6.745-21.56,20.532-36.554,30.064
	c-0.32,0.204-0.639,0.407-0.954,0.606c-0.437,0.277-0.868,0.55-1.294,0.819c-3.349,2.118-6.312,3.974-8.562,5.42l2.032,2.966
	l0.81,1.182c1.091-0.701,4.173-2.701,8.269-5.497c0.749,1.312,1.446,2.649,2.09,4.013c-5.308,2.395-9.176,4.363-9.233,4.394
	l1.017,1.992c2.834-1.446,5.941-2.938,9.126-4.372c0.618-0.278,1.237-0.553,1.859-0.825c0.345-0.152,0.69-0.303,1.037-0.453
	c12.253-5.299,24.785-9.305,26.8-6.282c0.104,0.156,0.226,0.427,0.09,0.974c-1.028,4.138-12.359,10.715-22.812,16.245
	c-0.342,0.18-0.681,0.359-1.02,0.537c-0.786,0.412-1.566,0.82-2.333,1.219c-4.17,2.166-7.977,4.085-10.658,5.523
	c-0.12,0.064-0.248,0.132-0.362,0.193l0.888,2.553l0.232,1.213c0,0,0.058-0.031,0.159-0.086l0.372,1.07
	c1.159-0.627,5.198-2.832,10.229-5.818c0.6,3.974,0.895,8.084,0.895,12.314c0,2.744-0.208,5.447-0.611,8.105
	C290.005,297.723,290.003,297.733,290,297.745z M345.608,375.359c-5.31,8.627-14.604,20.098-33.947,20.099
	c-0.19,0.003-0.415-0.001-0.626-0.004c-9.766-0.124-17.856-3.34-22.783-9.055c-4.223-4.899-5.936-11.298-4.952-18.505
	c1.948-14.289,11.018-17.288,18.282-17.288c1.891,0,3.91,0.198,6.003,0.592c4.544,0.852,7.973,3.07,9.917,6.419
	c2.257,3.887,2.036,8.231,1.076,11.003c-1.678,4.844-6.466,8.495-11.139,8.495c-0.634,0-4.018-0.644-5.137-1.159
	c-1.959-2.648-2.226-7.01-0.752-8.53c0.959-0.258,1.827-0.249,1.827-0.249c0.122-0.016,2.159,2.697,3.516,4.029
	c-0.363,0.172-0.595,0.266-0.595,0.266s0.336-0.046,0.658-0.203c0.501,0.483,0.902,0.771,1.062,0.628l0.043-0.023
	c3.604-1.893,5.306-4.231,4.8-6.601c-0.121-0.562-0.18-1.215-0.24-1.905c-0.28-3.155-0.704-7.926-9.056-7.926
	c-4.99,0-9.192,1.848-11.834,5.203c-1.954,2.481-3.922,6.936-2.2,14.071c2.026,8.4,9.621,13.218,20.835,13.218
	c1.962,0,3.98-0.148,6.001-0.444c11.076-1.614,24.761-13.604,22.986-35.403c-0.858-10.552-4.773-20.473-13.046-27.773
	c-8.152-7.191-18.927-11.494-30.342-12.113c-2.013-0.109-3.982-0.178-5.888-0.21c1.73-4.206,2.989-8.552,3.735-13.011
	c0.331,0.018,0.655,0.025,0.987,0.045c23.665,1.402,39.991,10.426,48.527,26.823C353.82,346.004,348.677,370.373,345.608,375.359z"
	/>
<circle fill="#010202" cx="213.218" cy="284.976" r="5.646"/>
<circle fill="#010202" cx="104.428" cy="288.945" r="4.573"/>
<path fill="#010202" d="M191.852,389.726c-1.059-1.589-1.82-2.585-1.914-2.733l-1.054-0.201c0.078,0.122,7.756,12.396,8.499,22.427
	c0.726,9.829-9.208,21.26-9.307,21.374l-0.554,0.63l0.45,0.707c0.025,0.041,2.458,4.006,0.373,5.748
	c-2.122,1.774-4.318,0.683-7.719-1.349c-1.897-1.132-2.597-2.646-0.713-5.936c0.553-0.966,1.986-0.648,2.213-0.704
	c0.249-0.061,0.439,0.043,0.442,0.043c0,0,0,0,0-0.001l0.806-0.254l0.981-0.604c0-0.037,0.198-3.875,4.29-12.12
	c4.525-9.122-5.787-26.292-6.328-27.149l-0.958,0.02c1.833,2.904,4.101,8.125,5.37,13.392c1.15,4.774,1.479,9.586-0.088,12.743
	c-2.975,5.995-3.949,10.132-4.297,12.002c-0.193-0.003-0.866,0.475-1.078,0.519c-1.062,0.221-2.381,0.22-3.146,1.555
	c-1.538,2.687-2.631,6.034,1.397,8.44c1.996,1.191,4.315,2.577,6.669,2.528c1.201-0.024,2.411-0.421,3.592-1.407
	c2.869-2.396,1.32-6.312,0.49-7.934c2.144-2.601,10.047-12.887,9.345-22.406C199.054,401.484,194.513,393.723,191.852,389.726z"/>
<path fill="none" stroke="#010202" stroke-width="3" stroke-miterlimit="10" d="M222.853,320.64c0,0-7.829,13.677-24.114,17.318
	c-11.92,2.666-64.535,6.224-72.329,3.661c-5.212-1.714-6.06-4.564-6.336-5.853"/>
<ellipse fill="#FFFFFF" cx="102.397" cy="288.313" rx="0.955" ry="1.321"/>
<ellipse fill="#FFFFFF" cx="211.024" cy="284.372" rx="1.125" ry="1.649"/>
<g>
	<path fill="#FFFFFF" d="M134.284,348.756c-1.187,0-2.183-2.89-2.606-5.462l5.218,0.173
		C136.477,345.951,135.478,348.756,134.284,348.756z"/>
	<path d="M132.905,344.335l2.774,0.092c-0.375,1.577-0.931,2.953-1.385,3.293C133.833,347.356,133.283,345.961,132.905,344.335
		 M130.531,342.255c0,0,0.747,7.501,3.753,7.501c3.007,0,3.753-7.252,3.753-7.252L130.531,342.255L130.531,342.255z"/>
</g>
<g>
	<path fill="#FFFFFF" d="M213.115,338.709c-1.216,0-3.194-1.846-4.578-3.53l4.603-2.459c0.88,2.361,1.419,5.289,0.386,5.886
		C213.402,338.677,213.272,338.709,213.115,338.709L213.115,338.709z"/>
	<path d="M212.567,334.159c0.463,1.551,0.671,3.018,0.449,3.542c-0.6-0.097-1.764-1.02-2.898-2.233L212.567,334.159
		 M213.646,331.315l-6.623,3.538c0,0,3.489,4.855,6.091,4.855c0.32,0,0.626-0.072,0.911-0.237
		C216.629,337.968,213.646,331.315,213.646,331.315L213.646,331.315z"/>
</g>
<path opacity="0.6" fill="#FFFFFF" d="M67.582,303.108c0,0-7.489-27.749,23.975-54.05c31.464-26.3,66.136-32.646,82.545-33.655
	c38.048-2.338,65.962,8.071,65.962,8.071s-36.271-13.322-83.988-2.456c-36.393,8.288-63.899,32.851-76.033,50.576
	C68.619,288.281,67.582,303.108,67.582,303.108z"/>
<path opacity="0.6" fill="#FFFFFF" d="M240.063,233.068c-1.211-1.398-2.236-1.771-3.746-1.928
	c18.094-22.342,43.678-49.578,49.834-46.074c0.471,0.269,0.572,2.56,0.067,5.223C277.44,194.034,272.776,197.094,240.063,233.068z"
	/>
<path opacity="0.6" fill="#FFFFFF" d="M97.263,241.569c-1.151,0.336-4.698,3.302-5.199,4.149
	c-8.269-16.698-17.713-39.798-13.985-42.477c0.285-0.205,1.663,0.355,3.094,1.372C81.007,210.797,83.641,212.81,97.263,241.569z"/>
<path opacity="0.6" fill="#FFFFFF" d="M264.701,249.457c-0.722-1.537-1.529-2.117-2.819-2.623
	c21.388-15.46,51.413-34.048,55.961-29.439c0.348,0.353-0.126,2.414-1.224,4.657C307.986,223.248,302.279,225.433,264.701,249.457z"
	/>
<path opacity="0.6" fill="#FFFFFF" d="M80.042,257.232c-0.855,0.312-3.111,3.608-3.442,4.273
	c-7.25-12.161-18.905-29.732-16.227-31.944c0.205-0.169,0.482-4.172,3.885-0.407C64.49,233.825,68.982,236.013,80.042,257.232z"/>
<path opacity="0.6" fill="#FFFFFF" d="M277.438,267.233c-0.296-1.061-0.753-1.522-1.526-1.989
	c15.42-7.434,36.732-15.883,39.156-12.433c0.187,0.264-0.342,1.523-1.29,2.829C308.099,255.427,304.193,256.173,277.438,267.233z"/>
<path opacity="0.6" fill="#FFFFFF" d="M68.886,270.941c-0.423,0.396-1.07,5.91-1.1,6.386c-7.225-5.388-16.87-16.881-15.849-18.853
	c0.078-0.151,0.719-1.357,1.559-1.233C54.778,259.944,57.208,261.145,68.886,270.941z"/>
<path opacity="0.6" fill="#FFFFFF" d="M168.915,375.947l4.597,0.401c0,0-1.571,5.964-6.688,14.538s-11.743,18.453-11.37,32.806
	c0.373,14.353,1.666,17.11,1.666,17.11s-7.341-24.027-1.056-39.243C162.164,386.791,168.915,375.947,168.915,375.947z"/>
<path opacity="0.6" fill="#FFFFFF" d="M229.392,372.62c0,0,20.131,7.953,23.858,27.587c3.728,19.633-7.207,30.32-19.634,30.32
	s-17.552-3.542-17.552-3.542s16.31,2.797,24.263-2.92c7.952-5.716,9.452-17.805,8.271-22.126
	c-2.681-9.811-5.373-15.951-14.284-23.106C225.402,371.677,229.392,372.62,229.392,372.62z"/>
<path opacity="0.6" fill="#FFFFFF" d="M155.024,460.014c0,0,5.864-7.623,14.532-9.509s-2.173,2.023-3.664,4.754
	s-9.805,8.215-10.868,6.25C153.961,459.545,155.024,460.014,155.024,460.014z"/>
<path opacity="0.6" fill="#FFFFFF" d="M138.575,456.005c0,0,4.595-6.829,11.387-8.52c6.793-1.688-1.702,1.814-2.871,4.26
	c-1.168,2.446-7.683,7.359-8.516,5.6C137.742,455.585,138.575,456.005,138.575,456.005z"/>
<path opacity="0.6" fill="#FFFFFF" d="M124.357,401.704c0.319,0.409,0.872,0.811,1.574,1.314c0.849,0.612,1.852,1.278,2.41,2.077
	c0.78,1.114,0.464,1.681,0.464,1.681c-1.19,3.623-4.607,3.529-6.622,0.887c-1.947-2.553-5.084-11.674-6.752-13.51
	c-1.669-1.834-6.247-6.639-7.529-8.465c-1.287-1.825-1.838-2.905-2.775-4.944c-0.904-1.964-1.758-3.82-2.406-4.693l-0.081-0.108
	c-0.663-0.856-2.191-2.428-3.812-4.09c-1.771-1.817-3.78-3.876-4.7-5.066l-0.083-0.113c-0.83-1.104-1.687-2.801-2.445-4.295
	c-0.81-1.6-1.504-2.97-2.135-3.665c-0.069-0.08-0.171-0.205-0.299-0.37c-2.059-2.663-9.71-13.861-10.388-14.992
	c-0.301-0.504-1.113-1.436-2.004-2.455c-0.739-0.847-1.504-1.717-2.082-2.469c-0.395-0.508-0.613-0.779-0.392-1.193
	c0.667-0.313,1.649,0.158,3.055,1.64c0.556,0.592,3.065,3.109,4.101,4.451c0.744,0.96,2.014,3.131,3.311,4.596
	c2.022,2.287,5.891,5.871,7.183,7.641c1.205,1.637,4.019,7.41,5.571,9.403c1.377,1.766,7.504,7.477,8.828,9.312
	c0.743,1.025,1.755,3.275,2.708,5.371c-0.318,0.126-0.553,0.297-0.744,0.551c-0.497,0.655-0.314,1.396-0.14,2.114
	c0.035,0.145,0.074,0.302,0.113,0.477c0.361,1.625,1.77,2.557,3.866,2.562l0.002,0.005c0.146-0.007,0.296-0.01,0.448-0.014
	c1.682,1.646,4.144,3.859,4.557,4.488c0.502,0.767,1.813,2.884,3.204,5.129C122.161,397.868,123.853,401.01,124.357,401.704z"/>
</svg>
