<?xml version="1.0" encoding="utf-8"?>
<!-- Generator: Adobe Illustrator 15.0.0, SVG Export Plug-In  -->
<!DOCTYPE svg PUBLIC "-//W3C//DTD SVG 1.0//EN" "http://www.w3.org/TR/2001/REC-SVG-20010904/DTD/svg10.dtd" [
	<!ENTITY ns_flows "http://ns.adobe.com/Flows/1.0/">
]>
<svg version="1.0"
	 xmlns="http://www.w3.org/2000/svg" xmlns:xlink="http://www.w3.org/1999/xlink" xmlns:a="http://ns.adobe.com/AdobeSVGViewerExtensions/3.0/"
	 x="0px" y="0px" width="296px" height="296px" viewBox="0 0 296 296" overflow="visible" enable-background="new 0 0 296 296"
	 xml:space="preserve">
<defs>
</defs>
<circle fill="#E7E7E7" cx="148" cy="148" r="148"/>
<path fill="#F5EB1B" d="M180.491,81.284l8.86-18.562c-15.414-7.359-31.831-10.13-47.713-8.873l1.609,20.529
	C155.645,73.395,168.458,75.542,180.491,81.284z"/>
<path fill="#FAAB18" d="M107.537,87.01L95.879,70.036c-13.143,9.008-24.166,21.488-31.524,36.903l18.563,8.86
	C88.662,103.767,97.277,94.04,107.537,87.01z"/>
<path fill="#F48020" d="M82.913,115.808c0.001-0.004,0.002-0.006,0.005-0.01l-18.563-8.86c-0.002,0.002-0.003,0.005-0.005,0.008
	c-7.356,15.412-10.131,31.829-8.871,47.71l20.527-1.609C75.025,140.65,77.17,127.838,82.913,115.808z"/>
<path fill="#F05A22" d="M76.007,153.047l-20.529,1.611c1.299,16.387,6.894,32.203,16.188,45.763l16.973-11.658
	C81.386,178.177,77.02,165.839,76.007,153.047z"/>
<path fill="#ED4798" d="M88.639,188.763l-16.973,11.658c9.01,13.146,21.493,24.169,36.909,31.527l8.86-18.563
	C105.401,207.641,95.672,199.025,88.639,188.763z"/>
<path fill="#C5168C" d="M117.436,213.385l-8.86,18.563c15.414,7.357,31.831,10.13,47.714,8.87l-1.61-20.527
	C142.281,221.274,129.469,219.127,117.436,213.385z"/>
<path fill="#9A258E" d="M154.679,220.292l1.61,20.526c16.385-1.299,32.199-6.893,45.757-16.185l-11.657-16.973
	C179.805,214.913,167.469,219.275,154.679,220.292z"/>
<path fill="#476EAE" d="M190.389,207.661l11.658,16.973c13.144-9.009,24.165-21.489,31.526-36.903l-18.564-8.86
	C209.264,190.902,200.649,200.629,190.389,207.661z"/>
<path fill="#9DCB3B" d="M209.288,105.906l16.973-11.659c-9.01-13.144-21.494-24.167-36.909-31.525l-8.86,18.562
	C192.526,87.029,202.255,95.644,209.288,105.906z"/>
<rect x="84.598" y="114.443" transform="matrix(0.8661 0.4999 -0.4999 0.8661 69.5395 -30.6721)" fill="#FAAB18" width="14.828" height="0"/>
<path fill="#F48020" d="M107.697,188.602c-0.002-0.003-0.005-0.005-0.008-0.009l-10.485,10.486c0.003,0.003,0.005,0.006,0.007,0.008
	c9.425,9.426,20.788,15.724,32.803,18.932l3.837-14.321C124.271,201.137,115.212,196.116,107.697,188.602z"/>
<path fill="#F05A22" d="M133.852,203.697l-3.836,14.321c12.396,3.312,25.485,3.312,37.884,0.003l-3.838-14.321
	C154.174,206.338,143.737,206.336,133.852,203.697z"/>
<path fill="#ED4798" d="M164.061,203.7l3.838,14.321c12.021-3.207,23.387-9.506,32.816-18.935l-10.484-10.485
	C182.712,196.12,173.648,201.143,164.061,203.7z"/>
<path fill="#C5168C" d="M190.231,188.602l10.484,10.485c9.427-9.427,15.723-20.789,18.933-32.808l-14.321-3.837
	C202.767,172.023,197.747,181.085,190.231,188.602z"/>
<path fill="#9A258E" d="M205.327,162.441l14.322,3.838c3.309-12.395,3.309-25.479,0.003-37.876l-14.321,3.838
	C207.967,142.125,207.966,152.56,205.327,162.441z"/>
<path fill="#476EAE" d="M205.329,132.24l14.323-3.836c-3.206-12.019-9.503-23.385-18.93-32.813l-10.485,10.485
	C197.753,113.594,202.773,122.656,205.329,132.24z"/>
<path fill="#118F67" d="M190.231,106.067c0.001,0.003,0.002,0.005,0.006,0.007l10.485-10.485c-0.001-0.003-0.003-0.005-0.007-0.008
	c-9.426-9.426-20.789-15.723-32.803-18.932l-3.837,14.323C173.654,93.53,182.713,98.551,190.231,106.067z"/>
<path fill="#50B348" d="M164.076,90.972l3.837-14.323c-12.398-3.311-25.486-3.312-37.884-0.002l3.838,14.322
	C143.753,88.332,154.188,88.332,164.076,90.972z"/>
<path fill="#9DCB3B" d="M133.933,90.824l-3.293-12.291c-10.317,2.753-20.073,8.158-28.166,16.252l9,8.999
	C117.926,97.331,125.705,93.021,133.933,90.824z"/>
<path fill="#F5EB1B" d="M148.963,117.658V96.947c-9.205,0-17.827,2.473-25.259,6.772l10.354,17.934
	C138.444,119.117,143.532,117.658,148.963,117.658z"/>
<path fill="#FFCC05" d="M131.749,117.508l-11.958-20.711c-8.854,5.122-16.233,12.499-21.357,21.353l20.711,11.958
	C122.167,124.884,126.524,120.53,131.749,117.508z"/>
<path fill="#FAAB18" d="M119.144,130.108L98.433,118.15c-4.968,8.583-7.827,18.542-7.829,29.174h23.918
	C114.523,141.051,116.211,135.174,119.144,130.108z"/>
<path fill="#F05A22" d="M119.135,164.546l-20.711,11.958c5.123,8.856,12.502,16.237,21.358,21.362l11.958-20.711
	C126.513,174.13,122.159,169.773,119.135,164.546z"/>
<path fill="#ED4798" d="M131.74,177.155l-11.958,20.711c8.587,4.971,18.547,7.828,29.182,7.828v-23.918
	C142.687,181.776,136.808,180.088,131.74,177.155z"/>
<path fill="#C5168C" d="M148.963,181.776v23.918c10.63,0,20.589-2.855,29.173-7.822l-11.959-20.711
	C161.114,180.091,155.237,181.776,148.963,181.776z"/>
<path fill="#9A258E" d="M166.177,177.161l11.959,20.711c8.854-5.122,16.234-12.5,21.356-21.354l-20.711-11.958
	C175.757,169.785,171.402,174.139,166.177,177.161z"/>
<path fill="#476EAE" d="M178.782,164.561l20.711,11.958c4.969-8.584,7.829-18.542,7.829-29.174h-23.916
	C183.402,153.618,181.715,159.495,178.782,164.561z"/>
<path fill="#118F67" d="M183.406,147.334c0,0.004,0,0.007,0,0.011h23.916c0-0.004,0-0.007,0-0.011
	c0-10.629-2.854-20.585-7.819-29.168l-20.712,11.958C181.721,135.189,183.406,141.062,183.406,147.334z"/>
<path fill="#50B348" d="M178.144,96.802l-11.956,20.71c5.227,3.025,9.581,7.383,12.603,12.61l20.712-11.958
	C194.38,109.308,187,101.928,178.144,96.802z"/>
<path fill="#9DCB3B" d="M166.186,117.513l11.958-20.71c-8.586-4.97-18.547-7.827-29.181-7.827v23.917
	C155.24,112.893,161.12,114.58,166.186,117.513z"/>
</svg>
