<?xml version="1.0" encoding="utf-8"?>
<!-- Generator: Adobe Illustrator 15.0.0, SVG Export Plug-In  -->
<!DOCTYPE svg PUBLIC "-//W3C//DTD SVG 1.0//EN" "http://www.w3.org/TR/2001/REC-SVG-20010904/DTD/svg10.dtd" [
	<!ENTITY ns_flows "http://ns.adobe.com/Flows/1.0/">
]>
<svg version="1.0"
	 xmlns="http://www.w3.org/2000/svg" xmlns:xlink="http://www.w3.org/1999/xlink" xmlns:a="http://ns.adobe.com/AdobeSVGViewerExtensions/3.0/"
	 x="0px" y="0px" width="296px" height="296px" viewBox="0 0 296 296" overflow="visible" enable-background="new 0 0 296 296"
	 xml:space="preserve">
<defs>
</defs>
<circle fill="#E7E7E7" cx="148" cy="148" r="148"/>
<path d="M151.744,94.305v1.536h-36.723v96.205h-1.676V95.841H76.343v-1.536H151.744z"/>
<path d="M180.524,219.011c3.896,0,6.899-1.87,9.008-5.608c2.106-3.739,3.162-8.352,3.162-13.84s-2.108-11.056-6.324-16.705
	c-6.045,6.921-14.358,10.381-24.937,10.381c-10.58,0-18.992-1.789-25.235-5.369c-6.246-3.579-9.367-9.227-9.367-16.943
	c0-5.328,1.432-9.623,4.295-12.886c2.864-3.261,7.676-5.647,14.438-7.159c-7-6.362-10.5-13.303-10.5-20.82
	s2.644-13.203,7.935-17.062c5.289-3.857,11.872-5.787,19.747-5.787c7.874,0,13.78,1.432,17.718,4.295
	c3.938,2.864,5.906,6.723,5.906,11.574c0,8.432-6.403,14.875-19.209,19.329c1.59,1.035,4.492,2.864,8.709,5.489
	c8.83,5.727,15.073,10.342,18.733,13.841c1.193-5.647,1.868-11.454,2.028-17.42h-9.426v-2.386h20.761v2.386h-8.353
	c-0.16,7.478-0.915,14.199-2.267,20.165c3.419,3.817,6.005,7.478,7.756,10.978c1.748,3.5,2.625,7.916,2.625,13.244
	c0,8.59-3.024,16.266-9.068,23.027c-6.046,6.76-12.927,10.143-20.642,10.143c-5.172,0-9.188-1.074-12.051-3.223
	c-2.863-2.146-4.296-4.892-4.296-8.232s0.935-5.947,2.804-7.814c1.869-1.871,4.236-2.805,7.1-2.805c6.363,0,9.545,2.863,9.545,8.591
	c0,1.193-0.238,2.625-0.715,4.296h-4.177C174.796,216.902,176.228,219.011,180.524,219.011z M164.296,190.137
	c8.431,0,15.112-3.262,20.046-9.784c-3.66-3.818-8.791-7.953-15.393-12.409c-11.376-7.476-18.613-12.567-21.715-15.272
	c-1.193,2.547-1.79,7.716-1.79,15.511c0,7.797,1.551,13.404,4.653,16.824C153.2,188.427,157.932,190.137,164.296,190.137z
	 M154.393,112.521c-2.147,1.87-3.221,4.833-3.221,8.889s0.954,7.397,2.863,10.022c1.908,2.625,5.566,5.808,10.977,9.545
	c3.342-1.749,5.43-3.857,6.264-6.324c0.836-2.465,1.254-6.085,1.254-10.858c0-9.385-3.461-14.079-10.381-14.079
	C159.125,109.717,156.542,110.653,154.393,112.521z"/>
</svg>
